<svg width="18" height="19" viewBox="0 0 18 19" fill="none" xmlns="http://www.w3.org/2000/svg">
<path d="M16.4454 2.83098H12.3838V2.17206C12.3838 1.08221 11.4727 0.195312 10.3531 0.195312H7.64537C6.52574 0.195312 5.6146 1.08221 5.6146 2.17206V2.83098H1.55306C0.806419 2.83098 0.199219 3.42203 0.199219 4.14881V4.80773C0.199219 5.17145 0.50248 5.46664 0.876142 5.46664H17.1223C17.496 5.46664 17.7992 5.17145 17.7992 4.80773V4.14881C17.7992 3.42203 17.192 2.83098 16.4454 2.83098ZM6.96845 2.17206C6.96845 1.809 7.27239 1.51314 7.64537 1.51314H10.3531C10.726 1.51314 11.03 1.809 11.03 2.17206V2.83098H6.96845V2.17206Z" fill="#7D83A1"/>
<path d="M2.39844 6.52344V16.1875C2.39844 17.2532 3.2868 18.1204 4.37844 18.1204H13.6184C14.7101 18.1204 15.5984 17.2532 15.5984 16.1875V6.52344H2.39844ZM11.4451 13.1549C11.7031 13.4069 11.7031 13.814 11.4451 14.0659C11.187 14.3179 10.7699 14.3179 10.5118 14.0659L8.99844 12.5886L7.48506 14.0659C7.227 14.3179 6.80988 14.3179 6.55182 14.0659C6.29376 13.814 6.29376 13.4069 6.55182 13.1549L8.0652 11.6776L6.55182 10.2003C6.29376 9.9484 6.29376 9.54121 6.55182 9.2893C6.80988 9.03739 7.227 9.03739 7.48506 9.2893L8.99844 10.7666L10.5118 9.2893C10.7699 9.03739 11.187 9.03739 11.4451 9.2893C11.7031 9.54121 11.7031 9.9484 11.4451 10.2003L9.93168 11.6776L11.4451 13.1549Z" fill="#7D83A1"/>
</svg>
