<svg width="403" height="38" viewBox="0 0 403 38" fill="none" xmlns="http://www.w3.org/2000/svg">
<g clip-path="url(#clip0_802_17815)">
<path d="M0 19.0144C0 20.2114 0.15281 21.3702 0.458431 22.4715C0.764052 23.5727 1.19383 24.607 1.75732 25.5646C2.31126 26.5223 2.98935 27.4033 3.77251 28.1886C4.55566 28.9738 5.43432 29.6634 6.38938 30.2284C7.34445 30.7934 8.38547 31.2339 9.49334 31.5403C10.6012 31.8468 11.7568 32 12.9507 32C14.7367 32 16.4367 31.6552 18.003 30.9753C19.5693 30.2954 20.9541 29.3569 22.1289 28.1886C23.3036 27.0203 24.2395 25.6317 24.9176 24.0611C25.5957 22.4906 25.9491 20.7956 25.9491 19.0048C25.9491 17.214 25.6053 15.5094 24.9176 13.9389C24.2395 12.3683 23.294 10.9797 22.1289 9.80184C20.9541 8.62394 19.5693 7.68545 18.003 7.0151C16.4271 6.34475 14.7271 6 12.9411 6C11.7377 6 10.5726 6.15322 9.47424 6.45967C8.37592 6.76611 7.3349 7.20663 6.37983 7.77164C5.42477 8.33665 4.54611 9.02615 3.76296 9.81142C2.9798 10.6063 2.30171 11.4873 1.74777 12.4545C1.19383 13.4217 0.754501 14.4656 0.44888 15.5573C0.15281 16.6586 0 17.8173 0 19.0144ZM4.36465 15.3657C4.85173 14.2357 5.52028 13.2302 6.35118 12.3971C7.19164 11.5543 8.18491 10.884 9.30233 10.4052C10.4198 9.91676 11.6422 9.67735 12.9316 9.67735C14.2209 9.67735 15.453 9.92634 16.5895 10.4052C17.726 10.8936 18.7288 11.5639 19.5693 12.4066C20.4097 13.2398 21.0878 14.2453 21.5654 15.3753C22.0524 16.5053 22.2912 17.7311 22.2912 19.0239C22.2912 20.3168 22.0429 21.5521 21.5654 22.6917C21.0783 23.8313 20.4097 24.8368 19.5693 25.67C18.7288 26.5127 17.726 27.1831 16.5895 27.6619C15.453 28.1503 14.2305 28.3897 12.9316 28.3897C11.6327 28.3897 10.4198 28.1407 9.30233 27.6619C8.18491 27.1735 7.18209 26.5031 6.35118 25.67C5.51072 24.8273 4.84218 23.8313 4.36465 22.6917C3.87756 21.5521 3.6388 20.3263 3.6388 19.0239C3.6388 17.7311 3.88711 16.5053 4.36465 15.3753V15.3657Z" fill="#6E778F"/>
<path d="M1.44141 19.0276C1.44141 19.8415 1.54646 20.6364 1.75658 21.3929C1.96669 22.1495 2.26276 22.8581 2.64479 23.5093C3.02681 24.1605 3.48525 24.7638 4.02008 25.3097C4.55492 25.846 5.15661 26.3152 5.80605 26.7078C6.4555 27.0909 7.1718 27.3973 7.9263 27.5985C8.6808 27.8091 9.4735 27.9145 10.2949 27.9145C11.5173 27.9145 12.6825 27.6751 13.7522 27.2154C14.8219 26.7557 15.7674 26.1141 16.5696 25.3097C17.3719 24.5053 18.0118 23.5572 18.4798 22.4942C18.9477 21.4217 19.1865 20.2533 19.1865 19.0371C19.1865 17.8209 18.9477 16.643 18.4798 15.5705C18.0118 14.4979 17.3719 13.5498 16.5696 12.7454C15.7674 11.941 14.8219 11.2994 13.7522 10.8397C12.6825 10.38 11.5173 10.1406 10.2949 10.1406C9.4735 10.1406 8.67125 10.246 7.9263 10.4566C7.1718 10.6673 6.46505 10.9642 5.8156 11.3568C5.16616 11.7399 4.56447 12.2091 4.02963 12.755C3.4948 13.3008 3.03636 13.9042 2.65434 14.5554C2.27231 15.2161 1.97624 15.9248 1.76613 16.6813C1.55601 17.4379 1.45096 18.2327 1.45096 19.0467L1.44141 19.0276ZM4.60267 16.6047C4.92739 15.8482 5.36672 15.1874 5.92066 14.632C6.4746 14.0765 7.13359 13.6264 7.87854 13.3104C8.6235 12.9944 9.42575 12.8316 10.2853 12.8316C11.1449 12.8316 11.9567 12.9944 12.7112 13.32C13.4657 13.6456 14.1247 14.0861 14.6882 14.6415C15.2421 15.197 15.691 15.8578 16.0157 16.6143C16.3309 17.3613 16.4932 18.1752 16.4932 19.0371C16.4932 19.899 16.3309 20.713 16.0157 21.46C15.691 22.2165 15.2516 22.8773 14.6882 23.4327C14.1247 23.9881 13.4657 24.4382 12.7112 24.7543C11.2022 25.3959 9.36845 25.3959 7.87854 24.7543C7.13359 24.4287 6.4746 23.9881 5.92066 23.4327C5.36672 22.8773 4.92739 22.2165 4.60267 21.46C4.2875 20.7034 4.12514 19.8894 4.12514 19.0371C4.12514 18.1752 4.2875 17.3613 4.60267 16.6143V16.6047Z" fill="#6E778F"/>
<path d="M7.29471 19.0039C7.29471 19.4828 7.35201 19.952 7.47617 20.3925C7.60033 20.833 7.77224 21.2544 8.00145 21.6374C8.22112 22.0205 8.49809 22.3748 8.80371 22.6909C9.11888 23.0069 9.47225 23.2846 9.85428 23.5049C10.2363 23.7347 10.6565 23.9071 11.0959 24.0316C11.5447 24.156 12.0127 24.2135 12.4807 24.2135C13.197 24.2135 13.8751 24.0794 14.515 23.8017C15.1453 23.5336 15.6993 23.1505 16.1673 22.6813C16.6352 22.212 17.0173 21.6566 17.2847 21.0246C17.5617 20.3925 17.6954 19.7126 17.6954 18.9944C17.6954 18.2761 17.5521 17.5866 17.2847 16.9546C17.0077 16.3225 16.6352 15.7671 16.1673 15.2979C15.6993 14.8286 15.1358 14.4456 14.515 14.1774C13.8847 13.9093 13.2066 13.7656 12.4807 13.7656C11.9936 13.7656 11.5256 13.8231 11.0863 13.9476C10.647 14.0721 10.2268 14.2444 9.84473 14.4743C9.4627 14.7041 9.10933 14.9818 8.79416 15.2979C8.47899 15.6139 8.21157 15.9682 7.98235 16.3513C7.76269 16.7343 7.58123 17.1557 7.46662 17.5962C7.34246 18.0367 7.28516 18.506 7.28516 18.9848L7.29471 19.0039ZM9.3863 17.6824C9.55821 17.2706 9.80653 16.9067 10.1026 16.6098C10.4082 16.3034 10.7616 16.064 11.1723 15.8916C11.5734 15.7192 12.0127 15.633 12.4807 15.633C12.9487 15.633 13.388 15.7192 13.7987 15.8916C14.2094 16.064 14.5723 16.313 14.8779 16.6098C15.1835 16.9163 15.4223 17.2706 15.6038 17.6824C15.7757 18.0846 15.8616 18.5347 15.8616 19.0039C15.8616 19.4732 15.7757 19.9233 15.6038 20.3255C15.4319 20.7373 15.1835 21.1012 14.8779 21.398C14.5723 21.7045 14.2094 21.9439 13.7987 22.1163C12.9773 22.461 11.9745 22.4706 11.1627 22.1163C10.752 21.9439 10.3987 21.6949 10.093 21.398C9.78743 21.0916 9.54866 20.7373 9.37675 20.3159C9.20484 19.9041 9.11888 19.4636 9.11888 18.9944C9.11888 18.5251 9.20484 18.0846 9.37675 17.6728L9.3863 17.6824Z" fill="#6E778F"/>
<path d="M10.633 16.3047C12.1133 16.3047 13.3167 17.5113 13.3167 18.9957C13.3167 20.48 12.1133 21.6866 10.633 21.6866C9.1526 21.6866 7.94922 20.48 7.94922 18.9957C7.94922 17.5113 9.1526 16.3047 10.633 16.3047Z" fill="#6E778F"/>
<path d="M36.225 25.4977C35.0407 24.8657 34.1143 23.9942 33.4362 22.8642C32.7581 21.7342 32.4238 20.4605 32.4238 19.0432C32.4238 17.6259 32.7581 16.3427 33.4362 15.2222C34.1143 14.0922 35.0407 13.2207 36.225 12.5887C37.4093 11.9566 38.7464 11.6406 40.2363 11.6406C41.5351 11.6406 42.7003 11.8705 43.7509 12.3301C44.7919 12.7898 45.661 13.4601 46.3487 14.322L43.7891 16.6395C42.8722 15.5287 41.7548 14.9732 40.4464 14.9732C39.6728 14.9732 38.9851 15.1456 38.3834 15.4808C37.7817 15.8159 37.3138 16.2948 36.9795 16.9172C36.6452 17.5397 36.4829 18.2388 36.4829 19.0432C36.4829 19.8476 36.6452 20.5563 36.9795 21.1692C37.3138 21.7821 37.7817 22.2609 38.3834 22.6056C38.9851 22.9408 39.6728 23.1132 40.4464 23.1132C41.7548 23.1132 42.8722 22.5578 43.7891 21.4469L46.3487 23.7644C45.661 24.6358 44.7919 25.2966 43.7509 25.7563C42.7099 26.2159 41.5351 26.4458 40.2363 26.4458C38.7464 26.4458 37.4093 26.1298 36.225 25.4977Z" fill="#6E778F"/>
<path d="M54.3329 22.3698H52.1458V26.1524H48.125V11.9219H54.6194C55.9088 11.9219 57.0167 12.1326 57.9717 12.5635C58.9172 12.9944 59.6526 13.5978 60.1588 14.3926C60.6746 15.1874 60.9324 16.1164 60.9324 17.1889C60.9324 18.2615 60.6937 19.1138 60.2161 19.8895C59.7386 20.6652 59.0509 21.2589 58.1532 21.6898L61.2189 26.162H56.9211L54.3425 22.3793L54.3329 22.3698ZM56.2431 15.6375C55.8228 15.2736 55.202 15.0917 54.3807 15.0917H52.1458V19.2574H54.3807C55.202 19.2574 55.8324 19.0755 56.2431 18.7211C56.6633 18.3572 56.8734 17.8497 56.8734 17.1889C56.8734 16.5281 56.6633 16.011 56.2431 15.6471V15.6375Z" fill="#6E778F"/>
<path d="M66.2534 25.4803C65.0596 24.8387 64.1141 23.9577 63.436 22.8372C62.7579 21.7168 62.4141 20.4431 62.4141 19.0354C62.4141 17.6277 62.7579 16.354 63.436 15.2335C64.1236 14.1035 65.0596 13.2225 66.2534 12.5905C67.4473 11.9584 68.8034 11.6328 70.3029 11.6328C71.8024 11.6328 73.149 11.9488 74.3524 12.5905C75.5462 13.2321 76.4917 14.1131 77.1698 15.2335C77.8575 16.3636 78.1917 17.6277 78.1917 19.0354C78.1917 20.4431 77.8479 21.7168 77.1698 22.8372C76.4917 23.9577 75.5462 24.8483 74.3524 25.4803C73.1585 26.1124 71.8024 26.438 70.3029 26.438C68.8034 26.438 67.4568 26.1219 66.2534 25.4803ZM72.2512 22.5882C72.8338 22.2531 73.2923 21.7742 73.6265 21.1518C73.9608 20.5293 74.1327 19.8302 74.1327 19.0258C74.1327 18.2214 73.9608 17.5223 73.6265 16.8998C73.2923 16.287 72.8243 15.8081 72.2512 15.4634C71.6686 15.1282 71.0192 14.9558 70.3029 14.9558C69.5866 14.9558 68.9372 15.1282 68.3546 15.4634C67.772 15.7986 67.3135 16.2774 66.9793 16.8998C66.645 17.5223 66.4731 18.2214 66.4731 19.0258C66.4731 19.8302 66.645 20.5389 66.9793 21.1518C67.3135 21.7647 67.7815 22.2435 68.3546 22.5882C68.9372 22.9234 69.5866 23.0958 70.3029 23.0958C71.0192 23.0958 71.6686 22.9234 72.2512 22.5882Z" fill="#6E778F"/>
<path d="M81.9446 26.0184C80.8654 25.7311 79.9867 25.3576 79.3086 24.8788L80.6266 21.9101C81.2665 22.3314 82.0019 22.6666 82.8423 22.9252C83.6828 23.1837 84.5041 23.3082 85.316 23.3082C86.8536 23.3082 87.6272 22.9252 87.6272 22.1495C87.6272 21.7377 87.4075 21.4408 86.9682 21.2397C86.5289 21.0482 85.8221 20.8375 84.848 20.6173C83.7783 20.3874 82.8901 20.1384 82.1738 19.8703C81.4575 19.6022 80.8462 19.1808 80.3305 18.5966C79.8148 18.0125 79.5569 17.2272 79.5569 16.2408C79.5569 15.3694 79.7957 14.5937 80.2637 13.8946C80.7316 13.1955 81.4479 12.6401 82.3839 12.2379C83.3199 11.8261 84.4755 11.625 85.8412 11.625C86.7772 11.625 87.6941 11.7303 88.6014 11.941C89.5087 12.1517 90.3014 12.4581 90.9986 12.8699L89.757 15.8578C88.4008 15.13 87.0924 14.7565 85.8221 14.7565C85.0199 14.7565 84.4468 14.8714 84.0744 15.1108C83.7114 15.3502 83.53 15.6567 83.53 16.0397C83.53 16.4228 83.7496 16.7005 84.1794 16.892C84.6092 17.0836 85.3064 17.2751 86.271 17.4858C87.3502 17.7156 88.248 17.9646 88.9547 18.2232C89.6615 18.4913 90.2823 18.9127 90.798 19.4872C91.3233 20.0618 91.5812 20.8471 91.5812 21.8335C91.5812 22.6858 91.3424 23.4615 90.8744 24.151C90.4064 24.8405 89.6901 25.3959 88.7446 25.8077C87.7991 26.2195 86.6435 26.4302 85.2968 26.4302C84.1508 26.4302 83.0333 26.2865 81.9446 25.9992V26.0184Z" fill="#6E778F"/>
<path d="M95.0676 26.0184C93.9884 25.7311 93.1097 25.3576 92.4316 24.8788L93.7496 21.9101C94.3895 22.3314 95.1249 22.6666 95.9654 22.9252C96.8058 23.1837 97.6272 23.3082 98.439 23.3082C99.9767 23.3082 100.75 22.9252 100.75 22.1495C100.75 21.7377 100.531 21.4408 100.091 21.2397C99.6519 21.0482 98.9452 20.8375 97.971 20.6173C96.9013 20.3874 96.0131 20.1384 95.2968 19.8703C94.5805 19.6022 93.9693 19.1808 93.4536 18.5966C92.9378 18.0125 92.68 17.2272 92.68 16.2408C92.68 15.3694 92.9187 14.5937 93.3867 13.8946C93.8642 13.1955 94.571 12.6401 95.507 12.2379C96.4429 11.8261 97.5985 11.625 98.9643 11.625C99.9003 11.625 100.817 11.7303 101.724 11.941C102.632 12.1517 103.424 12.4581 104.122 12.8699L102.88 15.8578C101.524 15.13 100.215 14.7565 98.9452 14.7565C98.1429 14.7565 97.5699 14.8714 97.1974 15.1108C96.8345 15.3502 96.653 15.6567 96.653 16.0397C96.653 16.4228 96.8727 16.7005 97.3025 16.892C97.7322 17.0836 98.4294 17.2751 99.3941 17.4858C100.473 17.7156 101.371 17.9646 102.087 18.2232C102.804 18.4817 103.415 18.9127 103.931 19.4872C104.446 20.0618 104.714 20.8471 104.714 21.8335C104.714 22.6858 104.475 23.4615 104.007 24.151C103.529 24.8405 102.823 25.3959 101.877 25.8077C100.932 26.2195 99.7761 26.4302 98.4294 26.4302C97.2834 26.4302 96.1659 26.2865 95.0772 25.9992L95.0676 26.0184Z" fill="#6E778F"/>
<path d="M120.673 11.9219V26.162H117.368L111.103 18.5775V26.162H107.168V11.9219H110.472L116.738 19.5064V11.9219H120.673Z" fill="#6E778F"/>
<path d="M134.915 23.0401V26.1524H123.512V11.9219H134.648V15.0342H127.485V17.4379H133.798V20.4449H127.485V23.0497H134.915V23.0401Z" fill="#6E778F"/>
<path d="M140.175 15.1108H135.811V11.9219H148.532V15.1108H144.186V26.162H140.166V15.1108H140.175Z" fill="#6E778F"/>
<path d="M150.031 11.9219H154.052V26.162H150.031V11.9219Z" fill="#6E778F"/>
<path d="M159.985 25.5055C158.8 24.8735 157.874 24.002 157.196 22.872C156.518 21.742 156.184 20.4683 156.184 19.051C156.184 17.6337 156.518 16.3505 157.196 15.23C157.874 14.1 158.8 13.2285 159.985 12.5965C161.169 11.9645 162.506 11.6484 163.996 11.6484C165.295 11.6484 166.46 11.8783 167.501 12.3379C168.542 12.7976 169.411 13.468 170.099 14.3298L167.539 16.6473C166.622 15.5365 165.505 14.981 164.187 14.981C163.413 14.981 162.726 15.1534 162.124 15.4886C161.522 15.8238 161.054 16.3026 160.72 16.925C160.386 17.5475 160.224 18.2466 160.224 19.051C160.224 19.8554 160.386 20.5641 160.72 21.177C161.054 21.7899 161.522 22.2687 162.124 22.6134C162.726 22.9486 163.413 23.121 164.187 23.121C165.495 23.121 166.613 22.5656 167.539 21.4547L170.099 23.7722C169.411 24.6436 168.542 25.3044 167.501 25.7641C166.46 26.2238 165.285 26.4536 163.996 26.4536C162.506 26.4536 161.169 26.1376 159.985 25.5055Z" fill="#6E778F"/>
<path d="M173.363 26.0184C172.283 25.7311 171.405 25.3576 170.727 24.8788L172.045 21.9101C172.684 22.3314 173.42 22.6666 174.26 22.9252C175.101 23.1837 175.922 23.3082 176.734 23.3082C178.272 23.3082 179.045 22.9252 179.045 22.1495C179.045 21.7377 178.826 21.4408 178.386 21.2397C177.947 21.0482 177.24 20.8375 176.266 20.6173C175.196 20.3874 174.308 20.1384 173.592 19.8703C172.875 19.6022 172.255 19.1808 171.748 18.5966C171.242 18.0125 170.975 17.2272 170.975 16.2408C170.975 15.3694 171.214 14.5937 171.682 13.8946C172.159 13.1955 172.866 12.6401 173.802 12.2379C174.738 11.8261 175.893 11.625 177.259 11.625C178.195 11.625 179.112 11.7303 180.019 11.941C180.927 12.1517 181.719 12.4581 182.417 12.8699L181.175 15.8578C179.819 15.13 178.51 14.7565 177.24 14.7565C176.438 14.7565 175.865 14.8714 175.492 15.1108C175.129 15.3502 174.948 15.6567 174.948 16.0397C174.948 16.4228 175.168 16.7005 175.597 16.892C176.027 17.0836 176.724 17.2751 177.689 17.4858C178.768 17.7156 179.666 17.9646 180.382 18.2232C181.089 18.4913 181.71 18.9127 182.226 19.4872C182.741 20.0618 183.009 20.8471 183.009 21.8335C183.009 22.6858 182.77 23.4615 182.302 24.151C181.824 24.8405 181.118 25.3959 180.172 25.8077C179.227 26.2195 178.071 26.4302 176.724 26.4302C175.578 26.4302 174.461 26.2865 173.382 25.9992L173.363 26.0184Z" fill="#6E778F"/>
</g>
<line x1="213.5" x2="213.5" y2="38" stroke="#6E778F"/>
<path d="M245.28 11.32H243.04V10H249.14V11.32H246.9V17H245.28V11.32ZM253.172 11.54C253.838 11.54 254.375 11.74 254.782 12.14C255.195 12.54 255.402 13.1333 255.402 13.92V17H253.842V14.16C253.842 13.7333 253.748 13.4167 253.562 13.21C253.375 12.9967 253.105 12.89 252.752 12.89C252.358 12.89 252.045 13.0133 251.812 13.26C251.578 13.5 251.462 13.86 251.462 14.34V17H249.902V9.58H251.462V12.18C251.668 11.9733 251.918 11.8167 252.212 11.71C252.505 11.5967 252.825 11.54 253.172 11.54ZM262.144 14.33C262.144 14.35 262.134 14.49 262.114 14.75H258.044C258.118 15.0833 258.291 15.3467 258.564 15.54C258.838 15.7333 259.178 15.83 259.584 15.83C259.864 15.83 260.111 15.79 260.324 15.71C260.544 15.6233 260.748 15.49 260.934 15.31L261.764 16.21C261.258 16.79 260.518 17.08 259.544 17.08C258.938 17.08 258.401 16.9633 257.934 16.73C257.468 16.49 257.108 16.16 256.854 15.74C256.601 15.32 256.474 14.8433 256.474 14.31C256.474 13.7833 256.598 13.31 256.844 12.89C257.098 12.4633 257.441 12.1333 257.874 11.9C258.314 11.66 258.804 11.54 259.344 11.54C259.871 11.54 260.348 11.6533 260.774 11.88C261.201 12.1067 261.534 12.4333 261.774 12.86C262.021 13.28 262.144 13.77 262.144 14.33ZM259.354 12.72C259.001 12.72 258.704 12.82 258.464 13.02C258.224 13.22 258.078 13.4933 258.024 13.84H260.674C260.621 13.5 260.474 13.23 260.234 13.03C259.994 12.8233 259.701 12.72 259.354 12.72ZM269.155 10C269.775 10 270.312 10.1033 270.765 10.31C271.225 10.5167 271.578 10.81 271.825 11.19C272.072 11.57 272.195 12.02 272.195 12.54C272.195 13.0533 272.072 13.5033 271.825 13.89C271.578 14.27 271.225 14.5633 270.765 14.77C270.312 14.97 269.775 15.07 269.155 15.07H267.745V17H266.125V10H269.155ZM269.065 13.75C269.552 13.75 269.922 13.6467 270.175 13.44C270.428 13.2267 270.555 12.9267 270.555 12.54C270.555 12.1467 270.428 11.8467 270.175 11.64C269.922 11.4267 269.552 11.32 269.065 11.32H267.745V13.75H269.065ZM273.339 9.58H274.899V17H273.339V9.58ZM278.517 11.54C279.35 11.54 279.99 11.74 280.437 12.14C280.884 12.5333 281.107 13.13 281.107 13.93V17H279.647V16.33C279.354 16.83 278.807 17.08 278.007 17.08C277.594 17.08 277.234 17.01 276.927 16.87C276.627 16.73 276.397 16.5367 276.237 16.29C276.077 16.0433 275.997 15.7633 275.997 15.45C275.997 14.95 276.184 14.5567 276.557 14.27C276.937 13.9833 277.52 13.84 278.307 13.84H279.547C279.547 13.5 279.444 13.24 279.237 13.06C279.03 12.8733 278.72 12.78 278.307 12.78C278.02 12.78 277.737 12.8267 277.457 12.92C277.184 13.0067 276.95 13.1267 276.757 13.28L276.197 12.19C276.49 11.9833 276.84 11.8233 277.247 11.71C277.66 11.5967 278.084 11.54 278.517 11.54ZM278.397 16.03C278.664 16.03 278.9 15.97 279.107 15.85C279.314 15.7233 279.46 15.54 279.547 15.3V14.75H278.477C277.837 14.75 277.517 14.96 277.517 15.38C277.517 15.58 277.594 15.74 277.747 15.86C277.907 15.9733 278.124 16.03 278.397 16.03ZM285.989 16.74C285.835 16.8533 285.645 16.94 285.419 17C285.199 17.0533 284.965 17.08 284.719 17.08C284.079 17.08 283.582 16.9167 283.229 16.59C282.882 16.2633 282.709 15.7833 282.709 15.15V12.94H281.879V11.74H282.709V10.43H284.269V11.74H285.609V12.94H284.269V15.13C284.269 15.3567 284.325 15.5333 284.439 15.66C284.559 15.78 284.725 15.84 284.939 15.84C285.185 15.84 285.395 15.7733 285.569 15.64L285.989 16.74ZM288.575 11.74H289.955V12.94H288.615V17H287.055V12.94H286.225V11.74H287.055V11.5C287.055 10.8867 287.235 10.4 287.595 10.04C287.961 9.68 288.475 9.5 289.135 9.5C289.368 9.5 289.588 9.52667 289.795 9.58C290.008 9.62667 290.185 9.69667 290.325 9.79L289.915 10.92C289.735 10.7933 289.525 10.73 289.285 10.73C288.811 10.73 288.575 10.99 288.575 11.51V11.74ZM293.223 17.08C292.657 17.08 292.147 16.9633 291.693 16.73C291.247 16.49 290.897 16.16 290.643 15.74C290.39 15.32 290.263 14.8433 290.263 14.31C290.263 13.7767 290.39 13.3 290.643 12.88C290.897 12.46 291.247 12.1333 291.693 11.9C292.147 11.66 292.657 11.54 293.223 11.54C293.79 11.54 294.297 11.66 294.743 11.9C295.19 12.1333 295.54 12.46 295.793 12.88C296.047 13.3 296.173 13.7767 296.173 14.31C296.173 14.8433 296.047 15.32 295.793 15.74C295.54 16.16 295.19 16.49 294.743 16.73C294.297 16.9633 293.79 17.08 293.223 17.08ZM293.223 15.8C293.623 15.8 293.95 15.6667 294.203 15.4C294.463 15.1267 294.593 14.7633 294.593 14.31C294.593 13.8567 294.463 13.4967 294.203 13.23C293.95 12.9567 293.623 12.82 293.223 12.82C292.823 12.82 292.493 12.9567 292.233 13.23C291.973 13.4967 291.843 13.8567 291.843 14.31C291.843 14.7633 291.973 15.1267 292.233 15.4C292.493 15.6667 292.823 15.8 293.223 15.8ZM298.706 12.33C298.893 12.07 299.143 11.8733 299.456 11.74C299.776 11.6067 300.143 11.54 300.556 11.54V12.98C300.383 12.9667 300.266 12.96 300.206 12.96C299.759 12.96 299.409 13.0867 299.156 13.34C298.903 13.5867 298.776 13.96 298.776 14.46V17H297.216V11.62H298.706V12.33ZM308.374 11.54C309.047 11.54 309.58 11.74 309.974 12.14C310.374 12.5333 310.574 13.1267 310.574 13.92V17H309.014V14.16C309.014 13.7333 308.924 13.4167 308.744 13.21C308.57 12.9967 308.32 12.89 307.994 12.89C307.627 12.89 307.337 13.01 307.124 13.25C306.91 13.4833 306.804 13.8333 306.804 14.3V17H305.244V14.16C305.244 13.3133 304.904 12.89 304.224 12.89C303.864 12.89 303.577 13.01 303.364 13.25C303.15 13.4833 303.044 13.8333 303.044 14.3V17H301.484V11.62H302.974V12.24C303.174 12.0133 303.417 11.84 303.704 11.72C303.997 11.6 304.317 11.54 304.664 11.54C305.044 11.54 305.387 11.6167 305.694 11.77C306 11.9167 306.247 12.1333 306.434 12.42C306.654 12.14 306.93 11.9233 307.264 11.77C307.604 11.6167 307.974 11.54 308.374 11.54ZM314.914 10H316.534V17H314.914V10ZM319.895 17.08C319.449 17.08 319.012 17.0267 318.585 16.92C318.159 16.8067 317.819 16.6667 317.565 16.5L318.085 15.38C318.325 15.5333 318.615 15.66 318.955 15.76C319.295 15.8533 319.629 15.9 319.955 15.9C320.615 15.9 320.945 15.7367 320.945 15.41C320.945 15.2567 320.855 15.1467 320.675 15.08C320.495 15.0133 320.219 14.9567 319.845 14.91C319.405 14.8433 319.042 14.7667 318.755 14.68C318.469 14.5933 318.219 14.44 318.005 14.22C317.799 14 317.695 13.6867 317.695 13.28C317.695 12.94 317.792 12.64 317.985 12.38C318.185 12.1133 318.472 11.9067 318.845 11.76C319.225 11.6133 319.672 11.54 320.185 11.54C320.565 11.54 320.942 11.5833 321.315 11.67C321.695 11.75 322.009 11.8633 322.255 12.01L321.735 13.12C321.262 12.8533 320.745 12.72 320.185 12.72C319.852 12.72 319.602 12.7667 319.435 12.86C319.269 12.9533 319.185 13.0733 319.185 13.22C319.185 13.3867 319.275 13.5033 319.455 13.57C319.635 13.6367 319.922 13.7 320.315 13.76C320.755 13.8333 321.115 13.9133 321.395 14C321.675 14.08 321.919 14.23 322.125 14.45C322.332 14.67 322.435 14.9767 322.435 15.37C322.435 15.7033 322.335 16 322.135 16.26C321.935 16.52 321.642 16.7233 321.255 16.87C320.875 17.01 320.422 17.08 319.895 17.08ZM326.34 10H329.52C330.28 10 330.95 10.1467 331.53 10.44C332.116 10.7267 332.57 11.1333 332.89 11.66C333.216 12.1867 333.38 12.8 333.38 13.5C333.38 14.2 333.216 14.8133 332.89 15.34C332.57 15.8667 332.116 16.2767 331.53 16.57C330.95 16.8567 330.28 17 329.52 17H326.34V10ZM329.44 15.67C330.14 15.67 330.696 15.4767 331.11 15.09C331.53 14.6967 331.74 14.1667 331.74 13.5C331.74 12.8333 331.53 12.3067 331.11 11.92C330.696 11.5267 330.14 11.33 329.44 11.33H327.96V15.67H329.44ZM339.761 14.33C339.761 14.35 339.751 14.49 339.731 14.75H335.661C335.735 15.0833 335.908 15.3467 336.181 15.54C336.455 15.7333 336.795 15.83 337.201 15.83C337.481 15.83 337.728 15.79 337.941 15.71C338.161 15.6233 338.365 15.49 338.551 15.31L339.381 16.21C338.875 16.79 338.135 17.08 337.161 17.08C336.555 17.08 336.018 16.9633 335.551 16.73C335.085 16.49 334.725 16.16 334.471 15.74C334.218 15.32 334.091 14.8433 334.091 14.31C334.091 13.7833 334.215 13.31 334.461 12.89C334.715 12.4633 335.058 12.1333 335.491 11.9C335.931 11.66 336.421 11.54 336.961 11.54C337.488 11.54 337.965 11.6533 338.391 11.88C338.818 12.1067 339.151 12.4333 339.391 12.86C339.638 13.28 339.761 13.77 339.761 14.33ZM336.971 12.72C336.618 12.72 336.321 12.82 336.081 13.02C335.841 13.22 335.695 13.4933 335.641 13.84H338.291C338.238 13.5 338.091 13.23 337.851 13.03C337.611 12.8233 337.318 12.72 336.971 12.72ZM346.042 11.62L343.772 17H342.162L339.902 11.62H341.512L343.002 15.28L344.542 11.62H346.042ZM351.803 14.33C351.803 14.35 351.793 14.49 351.773 14.75H347.703C347.776 15.0833 347.949 15.3467 348.223 15.54C348.496 15.7333 348.836 15.83 349.243 15.83C349.523 15.83 349.769 15.79 349.983 15.71C350.203 15.6233 350.406 15.49 350.593 15.31L351.423 16.21C350.916 16.79 350.176 17.08 349.203 17.08C348.596 17.08 348.059 16.9633 347.593 16.73C347.126 16.49 346.766 16.16 346.513 15.74C346.259 15.32 346.133 14.8433 346.133 14.31C346.133 13.7833 346.256 13.31 346.503 12.89C346.756 12.4633 347.099 12.1333 347.533 11.9C347.973 11.66 348.463 11.54 349.003 11.54C349.529 11.54 350.006 11.6533 350.433 11.88C350.859 12.1067 351.193 12.4333 351.433 12.86C351.679 13.28 351.803 13.77 351.803 14.33ZM349.013 12.72C348.659 12.72 348.363 12.82 348.123 13.02C347.883 13.22 347.736 13.4933 347.683 13.84H350.333C350.279 13.5 350.133 13.23 349.893 13.03C349.653 12.8233 349.359 12.72 349.013 12.72ZM352.841 9.58H354.401V17H352.841V9.58ZM358.409 17.08C357.842 17.08 357.332 16.9633 356.879 16.73C356.432 16.49 356.082 16.16 355.829 15.74C355.576 15.32 355.449 14.8433 355.449 14.31C355.449 13.7767 355.576 13.3 355.829 12.88C356.082 12.46 356.432 12.1333 356.879 11.9C357.332 11.66 357.842 11.54 358.409 11.54C358.976 11.54 359.482 11.66 359.929 11.9C360.376 12.1333 360.726 12.46 360.979 12.88C361.232 13.3 361.359 13.7767 361.359 14.31C361.359 14.8433 361.232 15.32 360.979 15.74C360.726 16.16 360.376 16.49 359.929 16.73C359.482 16.9633 358.976 17.08 358.409 17.08ZM358.409 15.8C358.809 15.8 359.136 15.6667 359.389 15.4C359.649 15.1267 359.779 14.7633 359.779 14.31C359.779 13.8567 359.649 13.4967 359.389 13.23C359.136 12.9567 358.809 12.82 358.409 12.82C358.009 12.82 357.679 12.9567 357.419 13.23C357.159 13.4967 357.029 13.8567 357.029 14.31C357.029 14.7633 357.159 15.1267 357.419 15.4C357.679 15.6667 358.009 15.8 358.409 15.8ZM365.582 11.54C366.082 11.54 366.535 11.6567 366.942 11.89C367.355 12.1167 367.678 12.44 367.912 12.86C368.145 13.2733 368.262 13.7567 368.262 14.31C368.262 14.8633 368.145 15.35 367.912 15.77C367.678 16.1833 367.355 16.5067 366.942 16.74C366.535 16.9667 366.082 17.08 365.582 17.08C364.895 17.08 364.355 16.8633 363.962 16.43V18.94H362.402V11.62H363.892V12.24C364.278 11.7733 364.842 11.54 365.582 11.54ZM365.312 15.8C365.712 15.8 366.038 15.6667 366.292 15.4C366.552 15.1267 366.682 14.7633 366.682 14.31C366.682 13.8567 366.552 13.4967 366.292 13.23C366.038 12.9567 365.712 12.82 365.312 12.82C364.912 12.82 364.582 12.9567 364.322 13.23C364.068 13.4967 363.942 13.8567 363.942 14.31C363.942 14.7633 364.068 15.1267 364.322 15.4C364.582 15.6667 364.912 15.8 365.312 15.8ZM374.576 14.33C374.576 14.35 374.566 14.49 374.546 14.75H370.476C370.549 15.0833 370.723 15.3467 370.996 15.54C371.269 15.7333 371.609 15.83 372.016 15.83C372.296 15.83 372.543 15.79 372.756 15.71C372.976 15.6233 373.179 15.49 373.366 15.31L374.196 16.21C373.689 16.79 372.949 17.08 371.976 17.08C371.369 17.08 370.833 16.9633 370.366 16.73C369.899 16.49 369.539 16.16 369.286 15.74C369.033 15.32 368.906 14.8433 368.906 14.31C368.906 13.7833 369.029 13.31 369.276 12.89C369.529 12.4633 369.873 12.1333 370.306 11.9C370.746 11.66 371.236 11.54 371.776 11.54C372.303 11.54 372.779 11.6533 373.206 11.88C373.633 12.1067 373.966 12.4333 374.206 12.86C374.453 13.28 374.576 13.77 374.576 14.33ZM371.786 12.72C371.433 12.72 371.136 12.82 370.896 13.02C370.656 13.22 370.509 13.4933 370.456 13.84H373.106C373.053 13.5 372.906 13.23 372.666 13.03C372.426 12.8233 372.133 12.72 371.786 12.72ZM381.095 9.58V17H379.605V16.38C379.218 16.8467 378.658 17.08 377.925 17.08C377.418 17.08 376.958 16.9667 376.545 16.74C376.138 16.5133 375.818 16.19 375.585 15.77C375.351 15.35 375.235 14.8633 375.235 14.31C375.235 13.7567 375.351 13.27 375.585 12.85C375.818 12.43 376.138 12.1067 376.545 11.88C376.958 11.6533 377.418 11.54 377.925 11.54C378.611 11.54 379.148 11.7567 379.535 12.19V9.58H381.095ZM378.195 15.8C378.588 15.8 378.915 15.6667 379.175 15.4C379.435 15.1267 379.565 14.7633 379.565 14.31C379.565 13.8567 379.435 13.4967 379.175 13.23C378.915 12.9567 378.588 12.82 378.195 12.82C377.795 12.82 377.465 12.9567 377.205 13.23C376.945 13.4967 376.815 13.8567 376.815 14.31C376.815 14.7633 376.945 15.1267 377.205 15.4C377.465 15.6667 377.795 15.8 378.195 15.8ZM248.44 27.5H245.19L244.57 29H242.91L246.03 22H247.63L250.76 29H249.06L248.44 27.5ZM247.93 26.27L246.82 23.59L245.71 26.27H247.93ZM254.646 23.54C255.313 23.54 255.85 23.74 256.256 24.14C256.67 24.54 256.876 25.1333 256.876 25.92V29H255.316V26.16C255.316 25.7333 255.223 25.4167 255.036 25.21C254.85 24.9967 254.58 24.89 254.226 24.89C253.833 24.89 253.52 25.0133 253.286 25.26C253.053 25.5 252.936 25.86 252.936 26.34V29H251.376V23.62H252.866V24.25C253.073 24.0233 253.33 23.85 253.636 23.73C253.943 23.6033 254.28 23.54 254.646 23.54ZM263.829 21.58V29H262.339V28.38C261.952 28.8467 261.392 29.08 260.659 29.08C260.152 29.08 259.692 28.9667 259.279 28.74C258.872 28.5133 258.552 28.19 258.319 27.77C258.086 27.35 257.969 26.8633 257.969 26.31C257.969 25.7567 258.086 25.27 258.319 24.85C258.552 24.43 258.872 24.1067 259.279 23.88C259.692 23.6533 260.152 23.54 260.659 23.54C261.346 23.54 261.882 23.7567 262.269 24.19V21.58H263.829ZM260.929 27.8C261.322 27.8 261.649 27.6667 261.909 27.4C262.169 27.1267 262.299 26.7633 262.299 26.31C262.299 25.8567 262.169 25.4967 261.909 25.23C261.649 24.9567 261.322 24.82 260.929 24.82C260.529 24.82 260.199 24.9567 259.939 25.23C259.679 25.4967 259.549 25.8567 259.549 26.31C259.549 26.7633 259.679 27.1267 259.939 27.4C260.199 27.6667 260.529 27.8 260.929 27.8ZM270.515 29.12C269.961 29.12 269.425 29.0467 268.905 28.9C268.391 28.7467 267.978 28.55 267.665 28.31L268.215 27.09C268.515 27.31 268.871 27.4867 269.285 27.62C269.698 27.7533 270.111 27.82 270.525 27.82C270.985 27.82 271.325 27.7533 271.545 27.62C271.765 27.48 271.875 27.2967 271.875 27.07C271.875 26.9033 271.808 26.7667 271.675 26.66C271.548 26.5467 271.381 26.4567 271.175 26.39C270.975 26.3233 270.701 26.25 270.355 26.17C269.821 26.0433 269.385 25.9167 269.045 25.79C268.705 25.6633 268.411 25.46 268.165 25.18C267.925 24.9 267.805 24.5267 267.805 24.06C267.805 23.6533 267.915 23.2867 268.135 22.96C268.355 22.6267 268.685 22.3633 269.125 22.17C269.571 21.9767 270.115 21.88 270.755 21.88C271.201 21.88 271.638 21.9333 272.065 22.04C272.491 22.1467 272.865 22.3 273.185 22.5L272.685 23.73C272.038 23.3633 271.391 23.18 270.745 23.18C270.291 23.18 269.955 23.2533 269.735 23.4C269.521 23.5467 269.415 23.74 269.415 23.98C269.415 24.22 269.538 24.4 269.785 24.52C270.038 24.6333 270.421 24.7467 270.935 24.86C271.468 24.9867 271.905 25.1133 272.245 25.24C272.585 25.3667 272.875 25.5667 273.115 25.84C273.361 26.1133 273.485 26.4833 273.485 26.95C273.485 27.35 273.371 27.7167 273.145 28.05C272.925 28.3767 272.591 28.6367 272.145 28.83C271.698 29.0233 271.155 29.12 270.515 29.12ZM279.902 23.62V29H278.422V28.36C278.215 28.5933 277.968 28.7733 277.682 28.9C277.395 29.02 277.085 29.08 276.752 29.08C276.045 29.08 275.485 28.8767 275.072 28.47C274.658 28.0633 274.452 27.46 274.452 26.66V23.62H276.012V26.43C276.012 27.2967 276.375 27.73 277.102 27.73C277.475 27.73 277.775 27.61 278.002 27.37C278.228 27.1233 278.342 26.76 278.342 26.28V23.62H279.902ZM284.527 23.54C285.027 23.54 285.48 23.6567 285.887 23.89C286.3 24.1167 286.624 24.44 286.857 24.86C287.09 25.2733 287.207 25.7567 287.207 26.31C287.207 26.8633 287.09 27.35 286.857 27.77C286.624 28.1833 286.3 28.5067 285.887 28.74C285.48 28.9667 285.027 29.08 284.527 29.08C283.84 29.08 283.3 28.8633 282.907 28.43V30.94H281.347V23.62H282.837V24.24C283.224 23.7733 283.787 23.54 284.527 23.54ZM284.257 27.8C284.657 27.8 284.984 27.6667 285.237 27.4C285.497 27.1267 285.627 26.7633 285.627 26.31C285.627 25.8567 285.497 25.4967 285.237 25.23C284.984 24.9567 284.657 24.82 284.257 24.82C283.857 24.82 283.527 24.9567 283.267 25.23C283.014 25.4967 282.887 25.8567 282.887 26.31C282.887 26.7633 283.014 27.1267 283.267 27.4C283.527 27.6667 283.857 27.8 284.257 27.8ZM291.431 23.54C291.931 23.54 292.385 23.6567 292.791 23.89C293.205 24.1167 293.528 24.44 293.761 24.86C293.995 25.2733 294.111 25.7567 294.111 26.31C294.111 26.8633 293.995 27.35 293.761 27.77C293.528 28.1833 293.205 28.5067 292.791 28.74C292.385 28.9667 291.931 29.08 291.431 29.08C290.745 29.08 290.205 28.8633 289.811 28.43V30.94H288.251V23.62H289.741V24.24C290.128 23.7733 290.691 23.54 291.431 23.54ZM291.161 27.8C291.561 27.8 291.888 27.6667 292.141 27.4C292.401 27.1267 292.531 26.7633 292.531 26.31C292.531 25.8567 292.401 25.4967 292.141 25.23C291.888 24.9567 291.561 24.82 291.161 24.82C290.761 24.82 290.431 24.9567 290.171 25.23C289.918 25.4967 289.791 25.8567 289.791 26.31C289.791 26.7633 289.918 27.1267 290.171 27.4C290.431 27.6667 290.761 27.8 291.161 27.8ZM297.716 29.08C297.149 29.08 296.639 28.9633 296.186 28.73C295.739 28.49 295.389 28.16 295.136 27.74C294.882 27.32 294.756 26.8433 294.756 26.31C294.756 25.7767 294.882 25.3 295.136 24.88C295.389 24.46 295.739 24.1333 296.186 23.9C296.639 23.66 297.149 23.54 297.716 23.54C298.282 23.54 298.789 23.66 299.236 23.9C299.682 24.1333 300.032 24.46 300.286 24.88C300.539 25.3 300.666 25.7767 300.666 26.31C300.666 26.8433 300.539 27.32 300.286 27.74C300.032 28.16 299.682 28.49 299.236 28.73C298.789 28.9633 298.282 29.08 297.716 29.08ZM297.716 27.8C298.116 27.8 298.442 27.6667 298.696 27.4C298.956 27.1267 299.086 26.7633 299.086 26.31C299.086 25.8567 298.956 25.4967 298.696 25.23C298.442 24.9567 298.116 24.82 297.716 24.82C297.316 24.82 296.986 24.9567 296.726 25.23C296.466 25.4967 296.336 25.8567 296.336 26.31C296.336 26.7633 296.466 27.1267 296.726 27.4C296.986 27.6667 297.316 27.8 297.716 27.8ZM303.198 24.33C303.385 24.07 303.635 23.8733 303.948 23.74C304.268 23.6067 304.635 23.54 305.048 23.54V24.98C304.875 24.9667 304.758 24.96 304.698 24.96C304.252 24.96 303.902 25.0867 303.648 25.34C303.395 25.5867 303.268 25.96 303.268 26.46V29H301.708V23.62H303.198V24.33ZM309.631 28.74C309.478 28.8533 309.288 28.94 309.061 29C308.841 29.0533 308.608 29.08 308.361 29.08C307.721 29.08 307.225 28.9167 306.871 28.59C306.525 28.2633 306.351 27.7833 306.351 27.15V24.94H305.521V23.74H306.351V22.43H307.911V23.74H309.251V24.94H307.911V27.13C307.911 27.3567 307.968 27.5333 308.081 27.66C308.201 27.78 308.368 27.84 308.581 27.84C308.828 27.84 309.038 27.7733 309.211 27.64L309.631 28.74ZM315.611 26.33C315.611 26.35 315.601 26.49 315.581 26.75H311.511C311.584 27.0833 311.758 27.3467 312.031 27.54C312.304 27.7333 312.644 27.83 313.051 27.83C313.331 27.83 313.578 27.79 313.791 27.71C314.011 27.6233 314.214 27.49 314.401 27.31L315.231 28.21C314.724 28.79 313.984 29.08 313.011 29.08C312.404 29.08 311.868 28.9633 311.401 28.73C310.934 28.49 310.574 28.16 310.321 27.74C310.068 27.32 309.941 26.8433 309.941 26.31C309.941 25.7833 310.064 25.31 310.311 24.89C310.564 24.4633 310.908 24.1333 311.341 23.9C311.781 23.66 312.271 23.54 312.811 23.54C313.338 23.54 313.814 23.6533 314.241 23.88C314.668 24.1067 315.001 24.4333 315.241 24.86C315.488 25.28 315.611 25.77 315.611 26.33ZM312.821 24.72C312.468 24.72 312.171 24.82 311.931 25.02C311.691 25.22 311.544 25.4933 311.491 25.84H314.141C314.088 25.5 313.941 25.23 313.701 25.03C313.461 24.8233 313.168 24.72 312.821 24.72ZM322.13 21.58V29H320.64V28.38C320.253 28.8467 319.693 29.08 318.96 29.08C318.453 29.08 317.993 28.9667 317.58 28.74C317.173 28.5133 316.853 28.19 316.62 27.77C316.386 27.35 316.27 26.8633 316.27 26.31C316.27 25.7567 316.386 25.27 316.62 24.85C316.853 24.43 317.173 24.1067 317.58 23.88C317.993 23.6533 318.453 23.54 318.96 23.54C319.646 23.54 320.183 23.7567 320.57 24.19V21.58H322.13ZM319.23 27.8C319.623 27.8 319.95 27.6667 320.21 27.4C320.47 27.1267 320.6 26.7633 320.6 26.31C320.6 25.8567 320.47 25.4967 320.21 25.23C319.95 24.9567 319.623 24.82 319.23 24.82C318.83 24.82 318.5 24.9567 318.24 25.23C317.98 25.4967 317.85 25.8567 317.85 26.31C317.85 26.7633 317.98 27.1267 318.24 27.4C318.5 27.6667 318.83 27.8 319.23 27.8ZM331.656 25.36C332.056 25.4867 332.369 25.7 332.596 26C332.822 26.2933 332.936 26.6567 332.936 27.09C332.936 27.7033 332.696 28.1767 332.216 28.51C331.742 28.8367 331.049 29 330.136 29H326.516V22H329.936C330.789 22 331.442 22.1633 331.896 22.49C332.356 22.8167 332.586 23.26 332.586 23.82C332.586 24.16 332.502 24.4633 332.336 24.73C332.176 24.9967 331.949 25.2067 331.656 25.36ZM328.126 23.22V24.87H329.736C330.136 24.87 330.439 24.8 330.646 24.66C330.852 24.52 330.956 24.3133 330.956 24.04C330.956 23.7667 330.852 23.5633 330.646 23.43C330.439 23.29 330.136 23.22 329.736 23.22H328.126ZM330.016 27.78C330.442 27.78 330.762 27.71 330.976 27.57C331.196 27.43 331.306 27.2133 331.306 26.92C331.306 26.34 330.876 26.05 330.016 26.05H328.126V27.78H330.016ZM339.392 23.62L336.962 29.33C336.715 29.95 336.409 30.3867 336.042 30.64C335.682 30.8933 335.245 31.02 334.732 31.02C334.452 31.02 334.175 30.9767 333.902 30.89C333.629 30.8033 333.405 30.6833 333.232 30.53L333.802 29.42C333.922 29.5267 334.059 29.61 334.212 29.67C334.372 29.73 334.529 29.76 334.682 29.76C334.895 29.76 335.069 29.7067 335.202 29.6C335.335 29.5 335.455 29.33 335.562 29.09L335.582 29.04L333.252 23.62H334.862L336.372 27.27L337.892 23.62H339.392ZM346.321 29.12C345.607 29.12 344.961 28.9667 344.381 28.66C343.807 28.3467 343.354 27.9167 343.021 27.37C342.694 26.8167 342.531 26.1933 342.531 25.5C342.531 24.8067 342.694 24.1867 343.021 23.64C343.354 23.0867 343.807 22.6567 344.381 22.35C344.961 22.0367 345.611 21.88 346.331 21.88C346.937 21.88 347.484 21.9867 347.971 22.2C348.464 22.4133 348.877 22.72 349.211 23.12L348.171 24.08C347.697 23.5333 347.111 23.26 346.411 23.26C345.977 23.26 345.591 23.3567 345.251 23.55C344.911 23.7367 344.644 24 344.451 24.34C344.264 24.68 344.171 25.0667 344.171 25.5C344.171 25.9333 344.264 26.32 344.451 26.66C344.644 27 344.911 27.2667 345.251 27.46C345.591 27.6467 345.977 27.74 346.411 27.74C347.111 27.74 347.697 27.4633 348.171 26.91L349.211 27.87C348.877 28.2767 348.464 28.5867 347.971 28.8C347.477 29.0133 346.927 29.12 346.321 29.12ZM351.685 24.33C351.871 24.07 352.121 23.8733 352.435 23.74C352.755 23.6067 353.121 23.54 353.535 23.54V24.98C353.361 24.9667 353.245 24.96 353.185 24.96C352.738 24.96 352.388 25.0867 352.135 25.34C351.881 25.5867 351.755 25.96 351.755 26.46V29H350.195V23.62H351.685V24.33ZM356.973 29.08C356.407 29.08 355.897 28.9633 355.443 28.73C354.997 28.49 354.647 28.16 354.393 27.74C354.14 27.32 354.013 26.8433 354.013 26.31C354.013 25.7767 354.14 25.3 354.393 24.88C354.647 24.46 354.997 24.1333 355.443 23.9C355.897 23.66 356.407 23.54 356.973 23.54C357.54 23.54 358.047 23.66 358.493 23.9C358.94 24.1333 359.29 24.46 359.543 24.88C359.797 25.3 359.923 25.7767 359.923 26.31C359.923 26.8433 359.797 27.32 359.543 27.74C359.29 28.16 358.94 28.49 358.493 28.73C358.047 28.9633 357.54 29.08 356.973 29.08ZM356.973 27.8C357.373 27.8 357.7 27.6667 357.953 27.4C358.213 27.1267 358.343 26.7633 358.343 26.31C358.343 25.8567 358.213 25.4967 357.953 25.23C357.7 24.9567 357.373 24.82 356.973 24.82C356.573 24.82 356.243 24.9567 355.983 25.23C355.723 25.4967 355.593 25.8567 355.593 26.31C355.593 26.7633 355.723 27.1267 355.983 27.4C356.243 27.6667 356.573 27.8 356.973 27.8ZM362.776 29.08C362.329 29.08 361.893 29.0267 361.466 28.92C361.039 28.8067 360.699 28.6667 360.446 28.5L360.966 27.38C361.206 27.5333 361.496 27.66 361.836 27.76C362.176 27.8533 362.509 27.9 362.836 27.9C363.496 27.9 363.826 27.7367 363.826 27.41C363.826 27.2567 363.736 27.1467 363.556 27.08C363.376 27.0133 363.099 26.9567 362.726 26.91C362.286 26.8433 361.923 26.7667 361.636 26.68C361.349 26.5933 361.099 26.44 360.886 26.22C360.679 26 360.576 25.6867 360.576 25.28C360.576 24.94 360.673 24.64 360.866 24.38C361.066 24.1133 361.353 23.9067 361.726 23.76C362.106 23.6133 362.553 23.54 363.066 23.54C363.446 23.54 363.823 23.5833 364.196 23.67C364.576 23.75 364.889 23.8633 365.136 24.01L364.616 25.12C364.143 24.8533 363.626 24.72 363.066 24.72C362.733 24.72 362.483 24.7667 362.316 24.86C362.149 24.9533 362.066 25.0733 362.066 25.22C362.066 25.3867 362.156 25.5033 362.336 25.57C362.516 25.6367 362.803 25.7 363.196 25.76C363.636 25.8333 363.996 25.9133 364.276 26C364.556 26.08 364.799 26.23 365.006 26.45C365.213 26.67 365.316 26.9767 365.316 27.37C365.316 27.7033 365.216 28 365.016 28.26C364.816 28.52 364.523 28.7233 364.136 28.87C363.756 29.01 363.303 29.08 362.776 29.08ZM368.089 29.08C367.642 29.08 367.205 29.0267 366.779 28.92C366.352 28.8067 366.012 28.6667 365.759 28.5L366.279 27.38C366.519 27.5333 366.809 27.66 367.149 27.76C367.489 27.8533 367.822 27.9 368.149 27.9C368.809 27.9 369.139 27.7367 369.139 27.41C369.139 27.2567 369.049 27.1467 368.869 27.08C368.689 27.0133 368.412 26.9567 368.039 26.91C367.599 26.8433 367.235 26.7667 366.949 26.68C366.662 26.5933 366.412 26.44 366.199 26.22C365.992 26 365.889 25.6867 365.889 25.28C365.889 24.94 365.985 24.64 366.179 24.38C366.379 24.1133 366.665 23.9067 367.039 23.76C367.419 23.6133 367.865 23.54 368.379 23.54C368.759 23.54 369.135 23.5833 369.509 23.67C369.889 23.75 370.202 23.8633 370.449 24.01L369.929 25.12C369.455 24.8533 368.939 24.72 368.379 24.72C368.045 24.72 367.795 24.7667 367.629 24.86C367.462 24.9533 367.379 25.0733 367.379 25.22C367.379 25.3867 367.469 25.5033 367.649 25.57C367.829 25.6367 368.115 25.7 368.509 25.76C368.949 25.8333 369.309 25.9133 369.589 26C369.869 26.08 370.112 26.23 370.319 26.45C370.525 26.67 370.629 26.9767 370.629 27.37C370.629 27.7033 370.529 28 370.329 28.26C370.129 28.52 369.835 28.7233 369.449 28.87C369.069 29.01 368.615 29.08 368.089 29.08ZM374.861 23.54C375.528 23.54 376.064 23.74 376.471 24.14C376.884 24.54 377.091 25.1333 377.091 25.92V29H375.531V26.16C375.531 25.7333 375.438 25.4167 375.251 25.21C375.064 24.9967 374.794 24.89 374.441 24.89C374.048 24.89 373.734 25.0133 373.501 25.26C373.268 25.5 373.151 25.86 373.151 26.34V29H371.591V23.62H373.081V24.25C373.288 24.0233 373.544 23.85 373.851 23.73C374.158 23.6033 374.494 23.54 374.861 23.54ZM383.834 26.33C383.834 26.35 383.824 26.49 383.804 26.75H379.734C379.807 27.0833 379.98 27.3467 380.254 27.54C380.527 27.7333 380.867 27.83 381.274 27.83C381.554 27.83 381.8 27.79 382.014 27.71C382.234 27.6233 382.437 27.49 382.624 27.31L383.454 28.21C382.947 28.79 382.207 29.08 381.234 29.08C380.627 29.08 380.09 28.9633 379.624 28.73C379.157 28.49 378.797 28.16 378.544 27.74C378.29 27.32 378.164 26.8433 378.164 26.31C378.164 25.7833 378.287 25.31 378.534 24.89C378.787 24.4633 379.13 24.1333 379.564 23.9C380.004 23.66 380.494 23.54 381.034 23.54C381.56 23.54 382.037 23.6533 382.464 23.88C382.89 24.1067 383.224 24.4333 383.464 24.86C383.71 25.28 383.834 25.77 383.834 26.33ZM381.044 24.72C380.69 24.72 380.394 24.82 380.154 25.02C379.914 25.22 379.767 25.4933 379.714 25.84H382.364C382.31 25.5 382.164 25.23 381.924 25.03C381.684 24.8233 381.39 24.72 381.044 24.72ZM388.342 28.74C388.189 28.8533 387.999 28.94 387.772 29C387.552 29.0533 387.319 29.08 387.072 29.08C386.432 29.08 385.936 28.9167 385.582 28.59C385.236 28.2633 385.062 27.7833 385.062 27.15V24.94H384.232V23.74H385.062V22.43H386.622V23.74H387.962V24.94H386.622V27.13C386.622 27.3567 386.679 27.5333 386.792 27.66C386.912 27.78 387.079 27.84 387.292 27.84C387.539 27.84 387.749 27.7733 387.922 27.64L388.342 28.74ZM389.218 23.62H390.778V29H389.218V23.62ZM389.998 22.87C389.711 22.87 389.478 22.7867 389.298 22.62C389.118 22.4533 389.028 22.2467 389.028 22C389.028 21.7533 389.118 21.5467 389.298 21.38C389.478 21.2133 389.711 21.13 389.998 21.13C390.285 21.13 390.518 21.21 390.698 21.37C390.878 21.53 390.968 21.73 390.968 21.97C390.968 22.23 390.878 22.4467 390.698 22.62C390.518 22.7867 390.285 22.87 389.998 22.87ZM394.826 29.08C394.253 29.08 393.736 28.9633 393.276 28.73C392.823 28.49 392.466 28.16 392.206 27.74C391.953 27.32 391.826 26.8433 391.826 26.31C391.826 25.7767 391.953 25.3 392.206 24.88C392.466 24.46 392.823 24.1333 393.276 23.9C393.736 23.66 394.253 23.54 394.826 23.54C395.393 23.54 395.886 23.66 396.306 23.9C396.733 24.1333 397.043 24.47 397.236 24.91L396.026 25.56C395.746 25.0667 395.343 24.82 394.816 24.82C394.409 24.82 394.073 24.9533 393.806 25.22C393.539 25.4867 393.406 25.85 393.406 26.31C393.406 26.77 393.539 27.1333 393.806 27.4C394.073 27.6667 394.409 27.8 394.816 27.8C395.349 27.8 395.753 27.5533 396.026 27.06L397.236 27.72C397.043 28.1467 396.733 28.48 396.306 28.72C395.886 28.96 395.393 29.08 394.826 29.08ZM399.944 29.08C399.497 29.08 399.061 29.0267 398.634 28.92C398.207 28.8067 397.867 28.6667 397.614 28.5L398.134 27.38C398.374 27.5333 398.664 27.66 399.004 27.76C399.344 27.8533 399.677 27.9 400.004 27.9C400.664 27.9 400.994 27.7367 400.994 27.41C400.994 27.2567 400.904 27.1467 400.724 27.08C400.544 27.0133 400.267 26.9567 399.894 26.91C399.454 26.8433 399.091 26.7667 398.804 26.68C398.517 26.5933 398.267 26.44 398.054 26.22C397.847 26 397.744 25.6867 397.744 25.28C397.744 24.94 397.841 24.64 398.034 24.38C398.234 24.1133 398.521 23.9067 398.894 23.76C399.274 23.6133 399.721 23.54 400.234 23.54C400.614 23.54 400.991 23.5833 401.364 23.67C401.744 23.75 402.057 23.8633 402.304 24.01L401.784 25.12C401.311 24.8533 400.794 24.72 400.234 24.72C399.901 24.72 399.651 24.7667 399.484 24.86C399.317 24.9533 399.234 25.0733 399.234 25.22C399.234 25.3867 399.324 25.5033 399.504 25.57C399.684 25.6367 399.971 25.7 400.364 25.76C400.804 25.8333 401.164 25.9133 401.444 26C401.724 26.08 401.967 26.23 402.174 26.45C402.381 26.67 402.484 26.9767 402.484 27.37C402.484 27.7033 402.384 28 402.184 28.26C401.984 28.52 401.691 28.7233 401.304 28.87C400.924 29.01 400.471 29.08 399.944 29.08Z" fill="#6E778F"/>
<defs>
<clipPath id="clip0_802_17815">
<rect width="183" height="26" fill="white" transform="translate(0 6)"/>
</clipPath>
</defs>
</svg>
